<?xml version="1.0" encoding="UTF-8"?>
<svg id="Camada_1" xmlns="http://www.w3.org/2000/svg" viewBox="0 0 240 57.75">
  <defs>
    <style>
      .cls-1 {
        fill: none;
        stroke: #557b9e;
        stroke-miterlimit: 10;
        stroke-width: .33px;
      }

      .cls-2, .cls-3 {
        fill: #557b9e;
      }

      .cls-4 {
        fill: #547ba0;
      }

      .cls-5 {
        fill: #557c9f;
      }

      .cls-6 {
        fill: #fdfefd;
      }

      .cls-7 {
        fill: #77abda;
      }

      .cls-8 {
        fill: #557a9a;
      }

      .cls-3 {
        font-family: CenturyGothic, 'Century Gothic';
        font-size: 7.85px;
      }

      .cls-9 {
        fill: #547a9d;
      }

      .cls-10 {
        fill: #78abdb;
      }

      .cls-11 {
        fill: #fefefe;
      }

      .cls-12 {
        fill: #fdfefe;
      }

      .cls-13 {
        fill: #577ea1;
      }
    </style>
  </defs>
  <g>
    <path class="cls-11" d="M0,57.75C0,38.5,0,19.25,0,0c80,0,160,0,240,0,0,19.25,0,38.5,0,57.75-80,0-160,0-240,0Z"/>
    <path class="cls-9" d="M89.02,20.68c.14-1.83.24-3.16.34-4.56,2.02-.91,3.1-.51,3.09,1.87-.02,11.48-.02,22.96,0,34.44,0,2.05-.87,2.71-3.08,1.88v-16.19c-4.1,4.92-8.67,6.66-14.06,5.76-3.58-.6-6.53-2.41-8.69-5.38-4.36-6-3.34-15.19,2.22-20.11,5.64-4.99,13.63-4.24,20.17,2.3Z"/>
    <path class="cls-5" d="M156.55,19.83c.99-1.43-.55-5.24,3.71-3.81v27.11c-4.15,1.45-2.83-2.17-3.61-3.75-8.91,6.11-16.1,6.14-21.3.11-4.77-5.53-4.57-15.02.42-20.27,5.33-5.6,13.03-5.4,20.78.62Z"/>
    <path class="cls-10" d="M28.46,8.06c0,5.04,0,10.12,0,15.21,0,1.34,0,2.68,0,4.25H8.78c-1.86-8.89,9.51-20.34,19.68-19.46Z"/>
    <path class="cls-7" d="M8.56,30.17c6.69.2,13.14-.46,19.71.44v18.95c-8.39,1.5-20.51-8.65-19.71-19.39Z"/>
    <path class="cls-7" d="M50.77,27.74c-5.7,0-11.15.01-16.6-.01-.96,0-1.92-.16-3.08-.26V8.05c10.03-.29,18.58,8.05,19.68,19.69Z"/>
    <path class="cls-7" d="M30.89,49.72c0-6.05,0-11.86,0-17.67,0-1.22.72-1.83,1.89-1.84,5.93-.02,11.87,0,17.8,0-.27,10.55-8.89,19.24-19.7,19.52Z"/>
    <path class="cls-2" d="M204.62,29.76c-.05-8.65,5.66-14.63,14.01-14.68,8.39-.05,14.4,5.89,14.49,14.33.09,8.4-5.91,14.66-14.13,14.72-8.42.06-14.33-5.84-14.37-14.36Z"/>
    <path class="cls-4" d="M121.36,16.08c2.2-.71,3.26-.39,3.26,1.58,0,8.46,0,16.93,0,25.27-2.85,1.43-3.25-.27-3.49-2.67-3.8,3.38-7.91,4.62-12.58,3.4-4.45-1.16-7.48-4.02-7.8-8.52-.45-6.31-.11-12.67-.11-18.98,2.58-1.13,3.37-.06,3.37,2.19,0,4.62-.04,9.24.04,13.85.09,5.56,3.22,8.82,8.39,8.9,5.38.08,8.79-3.23,8.91-8.86.11-5.34.02-10.69.02-16.16Z"/>
    <path class="cls-13" d="M189.99,19.17c-1.28-1.43-2.91-.44-3.8-1.77-.4-2.78,2.38-1.23,3.47-2.43.7-1.83.13-3.97.31-6.04.1-1.15.5-1.93,1.77-1.92,1.25,0,1.76.71,1.75,1.91-.01,2.09,0,4.17,0,6.13,1.95.85,3.6.37,5.18.55.76.09,1.52.16,1.6,1.16.09,1.23-.75,1.43-1.69,1.44-1.48.02-2.97,0-4.97,0,0,6.78-.17,13.33.1,19.86.09,2.2,2.32,2.63,4.34,2.64.99,0,2.13.02,2.12,1.47-.01,1.48-1.18,1.31-2.16,1.4-5.35.48-7.9-1.75-8.01-7.29-.11-5.84-.02-11.68-.02-17.1Z"/>
    <path class="cls-8" d="M171.6,16.03c.13,1.22.24,2.31.39,3.79,2.74-2.42,5.34-4.78,9.18-4.39.93,1.79.41,2.63-1.51,3.23-6.27,1.96-7.82,4.21-7.84,10.86-.01,4.47,0,8.93,0,13.38-2.24,1.11-3.29.61-3.29-1.69,0-7.72.01-15.44-.02-23.16,0-1.96.72-2.81,3.08-2.01Z"/>
    <path class="cls-12" d="M67.39,29.84c-.03-6.97,3.98-11.27,10.6-11.35,6.78-.09,11.2,4.36,11.15,11.26-.04,6.54-4.28,10.89-10.67,10.97-6.71.08-11.06-4.18-11.09-10.87Z"/>
    <path class="cls-6" d="M156.93,29.76c-.06,6.8-4.27,11-10.97,10.93-6.38-.06-10.86-4.74-10.81-11.3.05-6.56,4.54-10.94,11.17-10.92,6.63.02,10.66,4.32,10.6,11.28Z"/>
    <path class="cls-12" d="M229.53,29.67c-.03,6.76-4.35,11.11-10.95,11.02-6.17-.08-10.66-4.74-10.67-11.07-.01-6.48,4.61-11.28,10.92-11.34,6.29-.05,10.74,4.68,10.71,11.39Z"/>
  </g>
  <g>
    <text class="cls-3" transform="translate(227.72 14.75)"><tspan x="0" y="0">R</tspan></text>
    <circle class="cls-1" cx="229.75" cy="11.75" r="4.25"/>
  </g>
</svg>