<?xml version="1.0" encoding="UTF-8"?>
<svg id="Camada_1" xmlns="http://www.w3.org/2000/svg" viewBox="0 0 1478.26 976.43">
  <defs>
    <style>
      .cls-1 {
        fill: none;
      }

      .cls-1, .cls-2, .cls-3, .cls-4, .cls-5 {
        stroke-miterlimit: 10;
      }

      .cls-1, .cls-2, .cls-6 {
        stroke: #000;
      }

      .cls-2 {
        fill: #224295;
      }

      .cls-3 {
        fill: #214294;
      }

      .cls-3, .cls-4 {
        stroke-width: 3px;
      }

      .cls-3, .cls-4, .cls-7, .cls-5 {
        stroke: #1d1d1b;
      }

      .cls-6 {
        fill: #010101;
      }

      .cls-7 {
        font-family: CenturyGothic, 'Century Gothic';
        font-size: 72px;
      }

      .cls-7, .cls-5 {
        fill: #1d1d1b;
      }
    </style>
  </defs>
  <g>
    <g>
      <path class="cls-4" d="M363.07,505.17l-27.83,26.37c-20.02-19.69-41.95-34.63-65.8-44.8-23.85-10.17-47.08-15.26-69.7-15.26-28.16,0-54.97,6.92-80.44,20.75-25.47,13.84-45.21,32.59-59.2,56.27-14,23.68-21,48.71-21,75.07s7.24,52.7,21.73,77.03c14.48,24.33,34.5,43.46,60.06,57.37,25.55,13.92,53.55,20.87,83.98,20.87,36.95,0,68.2-10.41,93.75-31.25,25.55-20.83,40.69-47.85,45.41-81.05h-114.5v-34.67h154.79c-.33,55.5-16.81,99.57-49.44,132.2s-76.29,48.95-130.98,48.95c-66.41,0-118.98-22.62-157.71-67.87-29.79-34.83-44.68-75.11-44.68-120.85,0-34.02,8.54-65.67,25.63-94.97s40.53-52.2,70.31-68.73c29.79-16.52,63.48-24.78,101.07-24.78,30.43,0,59.08,5.49,85.94,16.48s53.06,28.61,78.61,52.86Z"/>
      <path class="cls-4" d="M624.73,538.38v265.62h-33.69v-45.65c-14.32,17.42-30.4,30.52-48.22,39.31s-37.32,13.18-58.47,13.18c-37.6,0-69.7-13.63-96.31-40.89-26.61-27.26-39.92-60.42-39.92-99.49s13.43-70.96,40.28-98.14c26.86-27.18,59.16-40.77,96.92-40.77,21.81,0,41.54,4.64,59.2,13.92,17.66,9.28,33.16,23.19,46.51,41.75v-48.83h33.69ZM488.14,564.5c-19.02,0-36.58,4.68-52.67,14.02-16.1,9.35-28.9,22.48-38.41,39.39-9.51,16.91-14.26,34.79-14.26,53.65s4.79,36.58,14.39,53.65c9.59,17.07,22.48,30.36,38.65,39.87,16.17,9.51,33.53,14.27,52.07,14.27s36.42-4.71,53.16-14.15c16.74-9.43,29.62-22.19,38.65-38.28,9.02-16.09,13.53-34.22,13.53-54.38,0-30.72-10.12-56.41-30.36-77.06-20.24-20.65-45.15-30.97-74.74-30.97Z"/>
      <path class="cls-4" d="M647.46,435.84h34.18v368.16h-34.18v-368.16Z"/>
      <path class="cls-4" d="M720.41,429c7.78,0,14.42,2.77,19.93,8.3,5.51,5.54,8.27,12.21,8.27,20.02s-2.76,14.24-8.27,19.78c-5.51,5.54-12.15,8.3-19.93,8.3s-14.18-2.77-19.69-8.3c-5.51-5.53-8.26-12.12-8.26-19.78s2.75-14.48,8.26-20.02c5.51-5.53,12.07-8.3,19.69-8.3ZM703.44,538.38h34.18v265.62h-34.18v-265.62Z"/>
      <path class="cls-4" d="M1031.97,435.84v368.16h-33.69v-45.65c-14.32,17.42-30.4,30.52-48.22,39.31s-37.32,13.18-58.47,13.18c-37.6,0-69.7-13.63-96.31-40.89-26.61-27.26-39.92-60.42-39.92-99.49s13.43-70.96,40.28-98.14c26.86-27.18,59.16-40.77,96.92-40.77,21.81,0,41.54,4.64,59.2,13.92,17.66,9.28,33.16,23.19,46.51,41.75v-151.37h33.69ZM895.37,564.5c-19.02,0-36.58,4.68-52.67,14.02-16.1,9.35-28.9,22.48-38.41,39.39-9.51,16.91-14.26,34.79-14.26,53.65s4.79,36.58,14.38,53.65c9.59,17.07,22.48,30.36,38.65,39.87,16.17,9.51,33.53,14.27,52.07,14.27s36.42-4.71,53.16-14.15c16.74-9.43,29.62-22.19,38.65-38.28,9.02-16.09,13.53-34.22,13.53-54.38,0-30.72-10.12-56.41-30.36-77.06-20.24-20.65-45.15-30.97-74.74-30.97Z"/>
      <path class="cls-4" d="M1188.06,531.78c40.92,0,74.84,14.81,101.74,44.43,24.46,27.02,36.69,59,36.69,95.95s-12.92,69.54-38.76,97.29c-25.84,27.75-59.07,41.63-99.66,41.63s-74.07-13.87-99.91-41.63c-25.84-27.75-38.76-60.18-38.76-97.29s12.23-68.68,36.69-95.7c26.9-29.79,60.9-44.68,101.99-44.68ZM1187.93,565.23c-28.42,0-52.84,10.5-73.26,31.49-20.42,21-30.62,46.39-30.62,76.17,0,19.21,4.65,37.11,13.97,53.71,9.31,16.6,21.88,29.42,37.73,38.45,15.84,9.03,33.24,13.55,52.18,13.55s36.34-4.52,52.18-13.55c15.84-9.03,28.42-21.85,37.73-38.45,9.31-16.6,13.97-34.5,13.97-53.71,0-29.79-10.25-55.18-30.75-76.17s-44.88-31.49-73.13-31.49Z"/>
      <path class="cls-4" d="M1341.88,538.62h34.91v38.82c10.41-15.3,21.4-26.73,32.96-34.3,11.55-7.57,23.6-11.35,36.13-11.35,9.44,0,19.53,3.01,30.27,9.03l-17.82,28.81c-7.16-3.09-13.18-4.64-18.07-4.64-11.39,0-22.38,4.68-32.96,14.04-10.58,9.36-18.64,23.89-24.17,43.58-4.23,15.14-6.35,45.74-6.35,91.8v89.84h-34.91v-265.62Z"/>
    </g>
    <g>
      <path class="cls-3" d="M178.41,964.54v-98.55c0-2.88,1.01-5.38,3.03-7.48,2.02-2.1,4.47-3.15,7.36-3.15s5.34,1.03,7.36,3.09c2.02,2.06,3.03,4.58,3.03,7.54v12.98l16.94-14.47c7.01-5.94,13.85-8.9,20.53-8.9h15.21c8.57,0,15.91,3.05,22.01,9.15,6.1,6.1,9.15,13.44,9.15,22.01v5.56c0,2.97-1.01,5.48-3.03,7.54-2.02,2.06-4.47,3.09-7.36,3.09s-5.34-1.01-7.36-3.03c-2.02-2.02-3.03-4.47-3.03-7.36v-5.81c0-2.88-1.01-5.34-3.03-7.36-2.02-2.02-4.47-3.03-7.36-3.03h-13.48c-2.89,0-6.1,1.53-9.65,4.58l-29.55,25.6v58c0,2.89-1.03,5.34-3.09,7.36-2.06,2.02-4.49,3.03-7.3,3.03s-5.34-1.01-7.36-3.03c-2.02-2.02-3.03-4.47-3.03-7.36Z"/>
      <path class="cls-3" d="M435.99,894.68v25.1c0,2.8-1.03,5.24-3.09,7.29s-4.49,3.09-7.3,3.09h-73.45v6.06c0,3.54,1.52,6.55,4.58,9.03l6.06,5.07c3.3,2.56,6.43,3.83,9.4,3.83h53.42c2.8,0,5.23,1.01,7.3,3.03,2.06,2.02,3.09,4.47,3.09,7.36s-1.05,5.24-3.15,7.29c-2.1,2.06-4.51,3.09-7.23,3.09h-54.78c-3.63,0-7.44-.76-11.44-2.29-4-1.52-6.95-3.11-8.84-4.76l-9.27-8.16c-2.89-2.31-5.3-5.52-7.23-9.64-1.94-4.12-2.91-7.91-2.91-11.38v-47.61c0-2.72,1.05-6.39,3.15-11.01,2.1-4.62,4.76-8.2,7.98-10.76l8.66-6.8c5.69-4.62,11.99-6.92,18.92-6.92h29.18c7.34,0,14.26,3.05,20.77,9.15l7.79,7.42c5.6,5.03,8.41,12.53,8.41,22.51ZM352.4,893.07v16.08h63.06v-14.47c0-3.87-1.2-6.84-3.59-8.9l-6.06-5.32c-3.13-2.55-5.94-3.83-8.41-3.83h-26.09c-3.22,0-6.14,1.11-8.78,3.34l-6.06,5.07c-2.72,2.06-4.08,4.74-4.08,8.04Z"/>
      <path class="cls-3" d="M513.4,855.6h47.61c7.42,0,13.97,2.21,19.66,6.62,5.69,4.41,8.53,8.72,8.53,12.92,0,2.97-1.05,5.4-3.15,7.3-2.1,1.9-4.43,2.84-6.99,2.84-3.3,0-6.31-1.48-9.03-4.45-2.72-2.97-5.56-4.45-8.53-4.45h-46.99c-4.62,0-6.92,1.92-6.92,5.76,0,2.7,1.54,4.74,4.62,6.13l55.23,24.59c5.6,2.47,10.2,6.45,13.79,11.93,3.59,5.48,5.38,11.56,5.38,18.24,0,8.9-3.15,16.45-9.46,22.63-6.31,6.18-13.46,9.27-21.45,9.27h-42.04c-7.25,0-13.99-2.18-20.22-6.55-6.23-4.37-9.34-8.61-9.34-12.74,0-2.72,1.01-5.13,3.03-7.23,2.02-2.1,4.64-3.15,7.85-3.15,2.64,0,5.46,1.48,8.47,4.45,3.01,2.97,7.36,4.45,13.05,4.45h38.7c3.05,0,5.6-1.17,7.67-3.52,2.06-2.35,3.09-5.05,3.09-8.1,0-4.7-2.31-8.08-6.92-10.14l-55.77-25.1c-5.36-2.39-9.48-5.85-12.37-10.39-2.89-4.53-4.33-9.15-4.33-13.85,0-7.42,2.58-13.85,7.73-19.29,5.15-5.44,11.52-8.16,19.1-8.16Z"/>
      <path class="cls-3" d="M741.92,894.68v25.1c0,2.8-1.03,5.24-3.09,7.29-2.06,2.06-4.49,3.09-7.3,3.09h-73.45v6.06c0,3.54,1.52,6.55,4.58,9.03l6.06,5.07c3.3,2.56,6.43,3.83,9.4,3.83h53.42c2.8,0,5.23,1.01,7.3,3.03,2.06,2.02,3.09,4.47,3.09,7.36s-1.05,5.24-3.15,7.29c-2.1,2.06-4.51,3.09-7.23,3.09h-54.78c-3.63,0-7.44-.76-11.44-2.29-4-1.52-6.95-3.11-8.84-4.76l-9.27-8.16c-2.89-2.31-5.3-5.52-7.23-9.64-1.94-4.12-2.91-7.91-2.91-11.38v-47.61c0-2.72,1.05-6.39,3.15-11.01,2.1-4.62,4.76-8.2,7.98-10.76l8.66-6.8c5.69-4.62,11.99-6.92,18.92-6.92h29.18c7.34,0,14.26,3.05,20.77,9.15l7.79,7.42c5.61,5.03,8.41,12.53,8.41,22.51ZM658.32,893.07v16.08h63.06v-14.47c0-3.87-1.2-6.84-3.59-8.9l-6.06-5.32c-3.13-2.55-5.94-3.83-8.41-3.83h-26.09c-3.22,0-6.14,1.11-8.78,3.34l-6.06,5.07c-2.72,2.06-4.08,4.74-4.08,8.04Z"/>
      <path class="cls-3" d="M821.22,900h40.74c2.23,0,5.45.49,9.66,1.48l-.24-14.71c0-2.88-1.01-5.33-3.04-7.36-2.03-2.02-4.48-3.03-7.37-3.03h-39.53c-2.81,0-5.25-1.03-7.31-3.09-2.07-2.06-3.1-4.49-3.1-7.3s1.01-5.34,3.03-7.36c2.02-2.02,4.48-3.03,7.37-3.03h39.51c8.59,0,15.91,3.01,21.98,9.03,6.07,6.02,9.23,13.4,9.48,22.13l2.6,77.78c0,2.89-1.03,5.34-3.09,7.36-2.06,2.02-4.49,3.03-7.29,3.03-2.97,0-5.48-1.01-7.54-3.03-2.06-2.02-3.09-4.47-3.09-7.36l-17.58,10.39h-35.17c-8.75,0-16.18-3.05-22.29-9.15-6.11-6.1-9.16-13.52-9.16-22.26v-12.12c0-8.66,3.07-16.05,9.23-22.2,6.15-6.14,13.56-9.21,22.23-9.21ZM873.18,940.43l-.62-8.78c-.08-2.97-1.12-5.44-3.1-7.42s-4.42-2.97-7.3-2.97h-40.97c-2.89,0-5.34,1.01-7.37,3.03-2.02,2.02-3.03,4.47-3.03,7.36v11.62c0,2.8,1.03,5.24,3.09,7.3,2.06,2.06,4.5,3.09,7.3,3.09h29.34l22.65-13.23Z"/>
      <path class="cls-3" d="M943.23,964.54v-98.55c0-2.88,1.01-5.38,3.03-7.48,2.02-2.1,4.47-3.15,7.36-3.15s5.34,1.03,7.36,3.09c2.02,2.06,3.03,4.58,3.03,7.54v12.98l16.94-14.47c7.01-5.94,13.85-8.9,20.53-8.9h15.21c8.57,0,15.91,3.05,22.01,9.15,6.1,6.1,9.15,13.44,9.15,22.01v5.56c0,2.97-1.01,5.48-3.03,7.54-2.02,2.06-4.47,3.09-7.36,3.09s-5.34-1.01-7.36-3.03c-2.02-2.02-3.03-4.47-3.03-7.36v-5.81c0-2.88-1.01-5.34-3.03-7.36-2.02-2.02-4.47-3.03-7.36-3.03h-13.48c-2.89,0-6.1,1.53-9.65,4.58l-29.55,25.6v58c0,2.89-1.03,5.34-3.09,7.36-2.06,2.02-4.49,3.03-7.3,3.03s-5.34-1.01-7.36-3.03c-2.02-2.02-3.03-4.47-3.03-7.36Z"/>
      <path class="cls-3" d="M1190.67,974.93h-44.39c-7.83,0-14.51-2.35-20.03-7.05l-20.16-17.56c-6.43-5.36-9.65-12.61-9.65-21.76v-27.08c-.33-8.82,3.3-16.49,10.88-23l18.18-15.7c5.85-4.78,12.12-7.17,18.8-7.17h46.62c2.88,0,5.34,1.01,7.36,3.03,2.02,2.02,3.03,4.47,3.03,7.36s-1.01,5.44-3.03,7.42c-2.02,1.98-4.47,2.97-7.36,2.97h-44.64c-2.8,0-5.48,1.11-8.04,3.34l-16.69,14.22c-2.72,2.31-4.08,5.4-4.08,9.27v25.35c0,2.72,1.07,5.03,3.21,6.92l18.3,15.58c2.31,2.06,5.36,3.09,9.15,3.09h42.54c2.8,0,5.23,1.01,7.3,3.03,2.06,2.02,3.09,4.47,3.09,7.36s-1.01,5.34-3.03,7.36-4.47,3.03-7.36,3.03Z"/>
      <path class="cls-3" d="M1248.91,964.54v-143.57c0-2.8,1.01-5.19,3.03-7.17,2.02-1.98,4.47-2.97,7.36-2.97s5.34,1.01,7.36,3.03c2.02,2.02,3.03,4.47,3.03,7.36v52.43l16.69-10.88c7.58-4.78,14.34-7.17,20.28-7.17h12.86c8.49,0,15.79,3.03,21.89,9.09,6.1,6.06,9.27,13.42,9.52,22.07l2.6,77.78c.08,2.89-.91,5.34-2.97,7.36-2.06,2.02-4.53,3.03-7.42,3.03s-5.32-1.05-7.3-3.15-3.01-4.51-3.09-7.23l-2.6-78.03c-.08-2.8-1.16-5.23-3.21-7.3-2.06-2.06-4.54-3.09-7.42-3.09h-11.62c-2.64,0-5.52,1.03-8.66,3.09l-29.55,19.29v66.03c0,2.89-1.01,5.34-3.03,7.36-2.02,2.02-4.47,3.03-7.36,3.03s-5.34-1.01-7.36-3.03c-2.02-2.02-3.03-4.47-3.03-7.36Z"/>
    </g>
    <g>
      <text class="cls-7" transform="translate(1393.07 516.17)"><tspan x="0" y="0">R</tspan></text>
      <path class="cls-5" d="M1412.21,528.21c-19.2,0-34.83-15.93-34.83-35.51s15.62-35.51,34.83-35.51,34.83,15.93,34.83,35.51-15.62,35.51-34.83,35.51ZM1412.21,460.2c-17.58,0-31.89,14.58-31.89,32.51s14.3,32.51,31.89,32.51,31.89-14.58,31.89-32.51-14.3-32.51-31.89-32.51Z"/>
    </g>
  </g>
  <g>
    <g>
      <path class="cls-6" d="M715.99,333.03c-5.58,3.18-11.3,5.99-17.15,8.43-5.7-5.3-11.16-10.99-16.37-17.07-31.27-36.47-46.89-78.65-46.89-126.54,0-35.61,8.97-68.76,26.92-99.44,9.7-16.57,21.34-31.19,34.93-43.85.7-.66,1.41-1.31,2.12-1.95.72-.65,1.44-1.3,2.17-1.93,10.46-9.17,22-17.25,34.63-24.23.35-.19.71-.39,1.06-.58.9-.49,1.8-.97,2.7-1.45.92-.48,1.83-.96,2.76-1.42,29.65-15,62.87-22.49,99.65-22.49,31.97,0,62.06,5.74,90.26,17.21,28.2,11.47,55.73,29.88,82.58,55.21l-29.16,27.63c-21.05-20.61-44.11-36.24-69.17-46.89-25.07-10.64-49.49-15.97-73.28-15.97-22.46,0-44.1,4.17-64.93,12.52l-5.29,2.22c-4.82,2.11-9.61,4.45-14.34,7.01-7.39,4-14.32,8.4-20.79,13.19l-4.31,3.31c-15.02,11.9-27.4,26.06-37.13,42.48-14.71,24.82-22.07,51.05-22.07,78.68s7.6,55.23,22.8,80.73c9.87,16.55,22.18,30.81,36.94,42.75-5.81,4.54-12.02,8.7-18.61,12.45Z"/>
      <path class="cls-6" d="M735.4,371.31c.89-.5,1.78-1.01,2.66-1.52,12.21-7.13,23.76-15.75,34.66-25.86.7-.64,1.39-1.29,2.08-1.94"/>
      <path class="cls-6" d="M1037.34,205.84c-.35,58.09-17.65,104.23-51.89,138.38-34.25,34.16-80.07,51.24-137.46,51.24-39.5,0-74.34-7.61-104.51-22.83,12.14-7.38,23.66-16.21,34.47-26.44,22.03,9.1,45.66,13.65,70.89,13.65,38.78,0,71.58-10.88,98.4-32.65,26.82-21.76,42.71-49.99,47.67-84.69h-119.96v-36.67h162.39Z"/>
      <path class="cls-6" d="M715.99,333.03c-5.58,3.18-11.3,5.99-17.15,8.43-5.7-5.3-11.16-10.99-16.37-17.07-31.27-36.47-46.89-78.65-46.89-126.54,0-35.61,8.97-68.76,26.92-99.44,9.7-16.57,21.34-31.19,34.93-43.85.7-.66,1.41-1.31,2.12-1.95.72-.65,1.44-1.3,2.17-1.93,10.46-9.17,22-17.25,34.63-24.23.35-.19.71-.39,1.06-.58.9-.49,1.8-.97,2.7-1.45.92-.48,1.83-.96,2.76-1.42,29.65-15,62.87-22.49,99.65-22.49,31.97,0,62.06,5.74,90.26,17.21,28.2,11.47,55.73,29.88,82.58,55.21l-29.16,27.63c-21.05-20.61-44.11-36.24-69.17-46.89-25.07-10.64-49.49-15.97-73.28-15.97-22.46,0-44.1,4.17-64.93,12.52l-5.29,2.22c-4.82,2.11-9.61,4.45-14.34,7.01-7.39,4-14.32,8.4-20.79,13.19l-4.31,3.31c-15.02,11.9-27.4,26.06-37.13,42.48-14.71,24.82-22.07,51.05-22.07,78.68s7.6,55.23,22.8,80.73c9.87,16.55,22.18,30.81,36.94,42.75-5.81,4.54-12.02,8.7-18.61,12.45Z"/>
      <path class="cls-6" d="M735.4,371.31c.89-.5,1.78-1.01,2.66-1.52,12.21-7.13,23.76-15.75,34.66-25.86.7-.64,1.39-1.29,2.08-1.94"/>
      <path class="cls-6" d="M1037.34,205.84c-.35,58.09-17.65,104.23-51.89,138.38-34.25,34.16-80.07,51.24-137.46,51.24-39.5,0-74.34-7.61-104.51-22.83,12.14-7.38,23.66-16.21,34.47-26.44,22.03,9.1,45.66,13.65,70.89,13.65,38.78,0,71.58-10.88,98.4-32.65,26.82-21.76,42.71-49.99,47.67-84.69h-119.96v-36.67h162.39Z"/>
      <path class="cls-6" d="M715.99,333.03c-5.58,3.18-11.3,5.99-17.15,8.43-5.7-5.3-11.16-10.99-16.37-17.07-31.27-36.47-46.89-78.65-46.89-126.54,0-35.61,8.97-68.76,26.92-99.44,9.7-16.57,21.34-31.19,34.93-43.85.7-.66,1.41-1.31,2.12-1.95.72-.65,1.44-1.3,2.17-1.93,10.46-9.17,22-17.25,34.63-24.23.35-.19.71-.39,1.06-.58.9-.49,1.8-.97,2.7-1.45.92-.48,1.83-.96,2.76-1.42,29.65-15,62.87-22.49,99.65-22.49,31.97,0,62.06,5.74,90.26,17.21,28.2,11.47,55.73,29.88,82.58,55.21l-29.16,27.63c-21.05-20.61-44.11-36.24-69.17-46.89-25.07-10.64-49.49-15.97-73.28-15.97-22.46,0-44.1,4.17-64.93,12.52l-5.29,2.22c-4.82,2.11-9.61,4.45-14.34,7.01-7.39,4-14.32,8.4-20.79,13.19l-4.31,3.31c-15.02,11.9-27.4,26.06-37.13,42.48-14.71,24.82-22.07,51.05-22.07,78.68s7.6,55.23,22.8,80.73c9.87,16.55,22.18,30.81,36.94,42.75-5.81,4.54-12.02,8.7-18.61,12.45Z"/>
      <path class="cls-6" d="M735.4,371.31c.89-.5,1.78-1.01,2.66-1.52,12.21-7.13,23.76-15.75,34.66-25.86.7-.64,1.39-1.29,2.08-1.94"/>
      <path class="cls-6" d="M1037.34,205.84c-.35,58.09-17.65,104.23-51.89,138.38-34.25,34.16-80.07,51.24-137.46,51.24-39.5,0-74.34-7.61-104.51-22.83,12.14-7.38,23.66-16.21,34.47-26.44,22.03,9.1,45.66,13.65,70.89,13.65,38.78,0,71.58-10.88,98.4-32.65,26.82-21.76,42.71-49.99,47.67-84.69h-119.96v-36.67h162.39Z"/>
      <path class="cls-6" d="M738.06,369.79c12.21-7.13,23.76-15.75,34.66-25.86l-34.66,25.86ZM874.96,205.84v36.67h119.96c-4.96,34.69-20.85,62.92-47.67,84.69-26.82,21.77-59.62,32.65-98.4,32.65-25.23,0-48.86-4.55-70.89-13.65-10.81,10.23-22.33,19.06-34.47,26.44,30.17,15.22,65.01,22.83,104.51,22.83,57.39,0,103.21-17.08,137.46-51.24,34.24-34.16,51.54-80.29,51.89-138.38h-162.39ZM932.77,17.71c-28.2-11.48-58.29-17.21-90.26-17.21-36.77,0-69.99,7.5-99.65,22.49-.92.47-1.84.94-2.76,1.42-.91.47-1.81.95-2.7,1.45-.36.19-.71.39-1.06.58-12.63,6.98-24.17,15.06-34.63,24.23-.73.63-1.45,1.28-2.17,1.93-.71.64-1.42,1.29-2.12,1.95-13.59,12.67-25.23,27.29-34.93,43.85-17.95,30.68-26.92,63.82-26.92,99.44,0,47.89,15.63,90.07,46.89,126.54,5.22,6.08,10.68,11.78,16.37,17.07,5.85-2.44,11.57-5.25,17.15-8.43,6.59-3.75,12.8-7.9,18.61-12.45-14.76-11.95-27.07-26.2-36.94-42.75-15.21-25.5-22.8-52.4-22.8-80.73s7.36-53.86,22.07-78.68c9.74-16.42,22.12-30.59,37.13-42.48.7-.57,1.41-1.12,2.13-1.67.72-.56,1.45-1.1,2.18-1.64,6.47-4.79,13.4-9.19,20.79-13.19,4.74-2.57,9.52-4.9,14.34-7.01.87-.39,1.75-.76,2.63-1.13.89-.37,1.77-.74,2.66-1.09,20.84-8.34,42.48-12.52,64.93-12.52,23.79,0,48.21,5.33,73.28,15.97,25.07,10.65,48.12,26.28,69.17,46.89l29.16-27.63c-26.85-25.33-54.37-43.74-82.58-55.21Z"/>
    </g>
    <g>
      <path class="cls-2" d="M778.81,57.5c-.39-.38-.78-.76-1.16-1.13-5.4,2.27-10.72,4.83-15.98,7.68-6.74,3.65-13.1,7.66-19.07,12.02,13.74,11.56,25.11,25.14,34.11,40.74,13.91,24.12,20.87,51.09,20.87,80.92s-6.96,57.27-20.87,81.82c-8.96,15.8-20.18,29.45-33.66,40.94-.68.59-1.37,1.16-2.06,1.73-.7.58-1.4,1.15-2.12,1.71-6.3,5-13.05,9.55-20.28,13.67-5.06,2.88-10.21,5.47-15.45,7.76-.88.39-1.77.77-2.65,1.13-.9.38-1.8.75-2.7,1.1-18.93,7.49-39,11.23-60.22,11.23-43.69,0-81.03-15.38-112.01-46.15-30.98-30.76-46.46-68.48-46.46-113.14,0-30.17,7-57.52,20.99-82.07,14-24.54,33.45-44.06,58.38-58.55,24.91-14.49,51.28-21.73,79.1-21.73,20.41,0,40.01,3.76,58.83,11.27,10.75-9.68,22.62-18.21,35.59-25.55-28.38-14.93-60.41-22.39-96.08-22.39s-67.75,8.74-97.91,26.21c-30.17,17.46-54,41.63-71.46,72.47-17.47,30.85-26.2,64.34-26.2,100.47,0,54.2,19.17,100.39,57.52,138.56,38.35,38.18,85.38,57.26,141.12,57.26,34.56,0,65.81-7.55,93.75-22.67.9-.49,1.8-.98,2.69-1.49.89-.5,1.78-1.01,2.66-1.52,12.21-7.13,23.76-15.75,34.66-25.86.7-.64,1.39-1.29,2.08-1.94.68-.65,1.36-1.31,2.04-1.97.7-.68,1.4-1.37,2.1-2.06,38.27-38.34,57.4-85.05,57.4-140.1s-19.18-102.33-57.52-140.35Z"/>
      <path class="cls-2" d="M778.81,57.5c-.39-.38-.78-.76-1.16-1.13-5.4,2.27-10.72,4.83-15.98,7.68-6.74,3.65-13.1,7.66-19.07,12.02,13.74,11.56,25.11,25.14,34.11,40.74,13.91,24.12,20.87,51.09,20.87,80.92s-6.96,57.27-20.87,81.82c-8.96,15.8-20.18,29.45-33.66,40.94-.68.59-1.37,1.16-2.06,1.73-.7.58-1.4,1.15-2.12,1.71-6.3,5-13.05,9.55-20.28,13.67-5.06,2.88-10.21,5.47-15.45,7.76-.88.39-1.77.77-2.65,1.13-.9.38-1.8.75-2.7,1.1-18.93,7.49-39,11.23-60.22,11.23-43.69,0-81.03-15.38-112.01-46.15-30.98-30.76-46.46-68.48-46.46-113.14,0-30.17,7-57.52,20.99-82.07,14-24.54,33.45-44.06,58.38-58.55,24.91-14.49,51.28-21.73,79.1-21.73,20.41,0,40.01,3.76,58.83,11.27,10.75-9.68,22.62-18.21,35.59-25.55-28.38-14.93-60.41-22.39-96.08-22.39s-67.75,8.74-97.91,26.21c-30.17,17.46-54,41.63-71.46,72.47-17.47,30.85-26.2,64.34-26.2,100.47,0,54.2,19.17,100.39,57.52,138.56,38.35,38.18,85.38,57.26,141.12,57.26,34.56,0,65.81-7.55,93.75-22.67.9-.49,1.8-.98,2.69-1.49.89-.5,1.78-1.01,2.66-1.52,12.21-7.13,23.76-15.75,34.66-25.86.7-.64,1.39-1.29,2.08-1.94.68-.65,1.36-1.31,2.04-1.97.7-.68,1.4-1.37,2.1-2.06,38.27-38.34,57.4-85.05,57.4-140.1s-19.18-102.33-57.52-140.35Z"/>
      <path class="cls-2" d="M778.81,57.5c-.39-.38-.78-.76-1.16-1.13-5.4,2.27-10.72,4.83-15.98,7.68-6.74,3.65-13.1,7.66-19.07,12.02,13.74,11.56,25.11,25.14,34.11,40.74,13.91,24.12,20.87,51.09,20.87,80.92s-6.96,57.27-20.87,81.82c-8.96,15.8-20.18,29.45-33.66,40.94-.68.59-1.37,1.16-2.06,1.73-.7.58-1.4,1.15-2.12,1.71-6.3,5-13.05,9.55-20.28,13.67-5.06,2.88-10.21,5.47-15.45,7.76-.88.39-1.77.77-2.65,1.13-.9.38-1.8.75-2.7,1.1-18.93,7.49-39,11.23-60.22,11.23-43.69,0-81.03-15.38-112.01-46.15-30.98-30.76-46.46-68.48-46.46-113.14,0-30.17,7-57.52,20.99-82.07,14-24.54,33.45-44.06,58.38-58.55,24.91-14.49,51.28-21.73,79.1-21.73,20.41,0,40.01,3.76,58.83,11.27,10.75-9.68,22.62-18.21,35.59-25.55-28.38-14.93-60.41-22.39-96.08-22.39s-67.75,8.74-97.91,26.21c-30.17,17.46-54,41.63-71.46,72.47-17.47,30.85-26.2,64.34-26.2,100.47,0,54.2,19.17,100.39,57.52,138.56,38.35,38.18,85.38,57.26,141.12,57.26,34.56,0,65.81-7.55,93.75-22.67.9-.49,1.8-.98,2.69-1.49.89-.5,1.78-1.01,2.66-1.52,12.21-7.13,23.76-15.75,34.66-25.86.7-.64,1.39-1.29,2.08-1.94.68-.65,1.36-1.31,2.04-1.97.7-.68,1.4-1.37,2.1-2.06,38.27-38.34,57.4-85.05,57.4-140.1s-19.18-102.33-57.52-140.35Z"/>
      <path class="cls-1" d="M778.81,57.5c-.39-.38-.78-.76-1.16-1.13-5.4,2.27-10.72,4.83-15.98,7.68-6.74,3.65-13.1,7.66-19.07,12.02,13.74,11.56,25.11,25.14,34.11,40.74,13.91,24.12,20.87,51.09,20.87,80.92s-6.96,57.27-20.87,81.82c-8.96,15.8-20.18,29.45-33.66,40.94-.68.59-1.37,1.16-2.06,1.73-.7.58-1.4,1.15-2.12,1.71-6.3,5-13.05,9.55-20.28,13.67-5.06,2.88-10.21,5.47-15.45,7.76-.88.39-1.77.77-2.65,1.13-.9.38-1.8.75-2.7,1.1-18.93,7.49-39,11.23-60.22,11.23-43.69,0-81.03-15.38-112.01-46.15-30.98-30.76-46.46-68.48-46.46-113.14,0-30.17,7-57.52,20.99-82.07,14-24.54,33.45-44.06,58.38-58.55,24.91-14.49,51.28-21.73,79.1-21.73,20.41,0,40.01,3.76,58.83,11.27,10.75-9.68,22.62-18.21,35.59-25.55-28.38-14.93-60.41-22.39-96.08-22.39s-67.75,8.74-97.91,26.21c-30.17,17.46-54,41.63-71.46,72.47-17.47,30.85-26.2,64.34-26.2,100.47,0,54.2,19.17,100.39,57.52,138.56,38.35,38.18,85.38,57.26,141.12,57.26,34.56,0,65.81-7.55,93.75-22.67.9-.49,1.8-.98,2.69-1.49.89-.5,1.78-1.01,2.66-1.52,12.21-7.13,23.76-15.75,34.66-25.86.7-.64,1.39-1.29,2.08-1.94.68-.65,1.36-1.31,2.04-1.97.7-.68,1.4-1.37,2.1-2.06,38.27-38.34,57.4-85.05,57.4-140.1s-19.18-102.33-57.52-140.35Z"/>
    </g>
  </g>
</svg>